<svg height="40.9pt" viewBox="0 0 400 40.9" width="400pt" xmlns="http://www.w3.org/2000/svg"><clipPath id="a"><path d="M0 0h400v40.9H0z"/></clipPath><clipPath id="b"><path d="M0 0h400v40.9H0z"/></clipPath><g clip-path="url(#a)"><g clip-path="url(#b)"><path d="M13.893 40.272L0 .116h9.223l8.522 30 7.82-26.965C26.029 1.13 27.354.116 29.536.116h5.951L21.829 40.272zm47.182-9.571h5.838c-.858 3.267-2.493 5.76-4.904 7.47-2.412 1.791-5.45 2.687-9.105 2.687-4.434 0-7.898-1.441-10.391-4.319-2.49-2.803-3.733-6.811-3.733-12.026 0-4.98 1.206-8.87 3.617-11.672 2.493-2.879 5.954-4.319 10.391-4.319 4.667 0 8.287 1.4 10.855 4.203 2.493 2.878 3.737 6.887 3.737 12.023v1.284a2.01 2.01 0 01-.116.817H47.067c.078 2.412.661 4.203 1.75 5.368 1.015 1.247 2.531 1.87 4.551 1.87 1.325 0 2.455-.273 3.389-.817.242-.085.462-.225.64-.409l.644-.644c.078-.231.368-.545.875-.933.504-.388 1.226-.583 2.159-.583zm-14.008-9.107h11.907c-.157-2.101-.702-3.658-1.635-4.669-1.011-1.09-2.452-1.635-4.319-1.635-1.71 0-3.113.545-4.203 1.635-1.089 1.087-1.672 2.643-1.75 4.666zM97.986 40.27h-4.087c-1.166 0-2.116-.369-2.858-1.108-.74-.739-1.111-1.692-1.111-2.861V20.429c0-1.87-.562-3.229-1.692-4.087a6.121 6.121 0 00-3.792-1.284 5.9 5.9 0 00-3.739 1.284c-1.087.858-1.632 2.217-1.632 4.087v19.843h-8.174V22.064c0-5.293 1.383-8.835 4.145-10.623a18.094 18.094 0 019.166-2.919 17.562 17.562 0 019.455 2.684c2.881 1.791 4.319 5.408 4.319 10.858v18.208zm17.301 0a60.73 60.73 0 01-8.348-.116c-2.994-.232-4.493-2.14-4.493-5.719V.116h4.203c1.012 0 1.905.388 2.684 1.165.777.777 1.168 1.71 1.168 2.803v5.252h4.783v1.635c0 1.165-.385 2.119-1.165 2.858-.777.739-1.71 1.11-2.803 1.11h-.815v17.275c0 1.325.777 1.986 2.334 1.986h2.452zM145.31 9.223v18.209c0 5.525-1.44 9.145-4.319 10.858a18.173 18.173 0 01-9.455 2.568 18.762 18.762 0 01-9.165-2.803c-2.762-1.71-4.145-5.252-4.145-10.623V9.223h8.174v19.844c0 1.866.545 3.229 1.635 4.087a5.888 5.888 0 003.733 1.284c1.403 0 2.667-.429 3.797-1.284 1.128-.858 1.69-2.221 1.69-4.087V13.191c0-1.09.371-2.023 1.11-2.803.739-.776 1.693-1.165 2.858-1.165zm3.525 31.049V25.217c0-3.034.449-5.582 1.342-7.646.898-2.061 2.122-3.716 3.678-4.959a14.444 14.444 0 015.194-2.571c1.998-.546 4.06-.82 6.131-.815h1.165v8.281h-2.684c-2.258 0-3.931.545-5.02 1.635-1.09 1.09-1.635 2.8-1.635 5.136V40.27h-8.171zM191 30.701h5.838c-.858 3.267-2.493 5.76-4.905 7.47-2.411 1.791-5.449 2.687-9.104 2.687-4.435 0-7.899-1.441-10.388-4.319-2.493-2.803-3.74-6.811-3.74-12.026 0-4.98 1.209-8.87 3.624-11.672 2.487-2.879 5.95-4.319 10.388-4.319 4.667 0 8.287 1.4 10.855 4.203 2.493 2.878 3.736 6.887 3.736 12.023v1.284c.019.277-.021.556-.116.817h-20.197c.079 2.412.661 4.203 1.751 5.368 1.015 1.247 2.53 1.87 4.551 1.87 1.324 0 2.455-.273 3.388-.817.243-.085.462-.225.641-.409l.643-.644c.078-.231.368-.545.876-.933.504-.388 1.226-.583 2.159-.583zm-14.009-9.107h11.908c-.157-2.101-.702-3.658-1.635-4.669-1.012-1.09-2.452-1.635-4.319-1.635-1.71 0-3.113.545-4.203 1.635-1.09 1.087-1.672 2.643-1.751 4.666zm23.838 18.676V4.319c0-1.168.406-2.16 1.226-2.977a4.053 4.053 0 012.977-1.226h4.087v14.942h16.574V.116h8.406v40.156h-8.406v-17.86h-16.577v17.86h-8.29zm55.122-15.641c-1.09.545-2.609 1.049-4.551 1.516l-2.687.585c-1.4.389-2.412.893-3.035 1.516-.545.855-.817 1.711-.817 2.568 0 1.169.348 2.102 1.049 2.803.702.621 1.713.934 3.038.934 2.177 0 3.89-.623 5.136-1.87 1.246-1.246 1.867-2.956 1.867-5.136v-2.913zm1.866 14.357a14.383 14.383 0 01-5.194 1.576c-1.826.195-3.443.29-4.843.29-2.803 0-5.252-.756-7.354-2.275-2.101-1.516-3.154-4.029-3.154-7.528 0-3.269.957-5.603 2.861-7.006 1.908-1.4 4.339-2.333 7.296-2.8a6.88 6.88 0 001.4-.173 17.573 17.573 0 011.87-.293c3.423-.467 5.136-1.478 5.136-3.035 0-1.168-.603-1.928-1.812-2.278a12.012 12.012 0 00-3.324-.525c-1.09 0-2.064.157-2.919.467-.858.31-1.479.895-1.87 1.751h-7.82a8.989 8.989 0 013.269-5.954c2.102-1.789 5.096-2.684 8.986-2.684 4.359 0 7.629.739 9.809 2.217 2.255 1.557 3.385 3.736 3.385 6.536v10.624c0 3.113-.565 5.545-1.693 7.295-1.13 1.751-2.472 3.015-4.029 3.797zm9.131 1.284V25.217c0-3.034.446-5.582 1.342-7.646.896-2.061 2.119-3.716 3.675-4.959a14.441 14.441 0 015.197-2.571 23.023 23.023 0 016.128-.815h1.168v8.281h-2.687c-2.255 0-3.93.545-5.017 1.635-1.09 1.09-1.635 2.8-1.635 5.136V40.27h-8.174zm28.501-36.299v9.339c.858-1.478 2.102-2.684 3.739-3.617 1.398-.78 3.111-1.168 5.134-1.168 3.658 0 6.655 1.516 8.988 4.55 2.336 3.038 3.502 6.968 3.502 11.792 0 4.826-1.166 8.753-3.502 11.791-1.168 1.478-2.742 2.551-4.724 3.209a18.56 18.56 0 01-5.899.994 19.597 19.597 0 01-10.388-2.919c-3.189-1.945-4.786-5.681-4.786-11.206V0h3.971c1.087 0 2.02.388 2.8 1.168.777.777 1.165 1.71 1.165 2.8zm13.308 20.545c0-2.8-.58-4.98-1.751-6.536-1.165-1.635-2.763-2.452-4.783-2.452-2.182 0-3.855.779-5.023 2.336-1.165 1.635-1.751 3.852-1.751 6.652 0 3.27.545 5.643 1.635 7.122 1.168 1.634 2.803 2.452 4.904 2.452 2.177 0 3.853-.818 5.018-2.452 1.168-1.635 1.751-4.009 1.751-7.122zm15.55 12.956c-1.635-1.4-2.803-3.286-3.501-5.66a26.078 26.078 0 01-1.053-7.412c0-2.101.29-4.203.876-6.304.585-2.102 1.499-3.853 2.745-5.253 2.023-2.333 4.629-3.715 7.82-4.144 3.189-.427 6.07-.174 8.638.759a11.898 11.898 0 016.539 6.07c1.322 2.568 1.983 5.565 1.983 8.988 0 2.493-.273 4.632-.818 6.42-.545 1.792-1.246 3.307-2.101 4.554-1.867 2.568-4.241 4.162-7.119 4.785-2.534.7-5.202.76-7.765.174-2.606-.579-4.687-1.574-6.244-2.974zm5.603-20.542c-1.635 1.789-2.374 4.456-2.217 7.995.156 3.542.817 6.011 1.982 7.414.47.62 1.284 1.148 2.453 1.574a5.568 5.568 0 003.562.116c1.206-.348 2.275-1.223 3.209-2.626.933-1.4 1.44-3.655 1.518-6.768 0-2.803-.449-4.905-1.345-6.305-.892-1.4-1.924-2.295-3.092-2.684a5.678 5.678 0 00-3.502-.058c-1.168.348-2.023.798-2.568 1.342zm49.052-7.704v18.209c0 5.524-1.44 9.145-4.319 10.858a18.182 18.182 0 01-9.455 2.568 18.762 18.762 0 01-9.165-2.803c-2.762-1.71-4.145-5.252-4.145-10.623V9.223h8.174v19.844c0 1.866.542 3.229 1.632 4.087a5.887 5.887 0 003.739 1.284 6.125 6.125 0 003.791-1.284c1.131-.858 1.693-2.221 1.693-4.087V13.191c0-1.09.368-2.023 1.11-2.803.74-.776 1.69-1.165 2.858-1.165h4.087zm3.525 31.049V25.217c0-3.034.446-5.582 1.342-7.646.896-2.061 2.122-3.716 3.678-4.959a14.444 14.444 0 015.194-2.571 23.023 23.023 0 016.128-.815H400v8.281h-2.684c-2.258 0-3.93.545-5.02 1.635s-1.635 2.8-1.635 5.136V40.27h-8.171z" fill="#8E8A9C" fill-rule="evenodd"/></g></g></svg>