<svg height="192.727" viewBox="0 0 400 144.545" width="400pt" xmlns="http://www.w3.org/2000/svg"><clipPath id="a"><path d="M0 0h400v144.545H0z"/></clipPath><g clip-path="url(#a)"><path d="M152.273 50.909v32.273h15.909l.009-6.25.008-6.25 2.915-1.705c3.618-2.115 3.391-2.136 4.992.456.734 1.187 2.98 4.766 4.992 7.953l3.659 5.796h8.53c10.07 0 9.762.27 5.876-5.157-1.46-2.039-4.956-7.14-7.768-11.337l-5.114-7.631 4.473-4.66c5.088-5.301 10.155-12.174 10.155-13.773v-1.079h-8.606c-8.217 0-8.618.042-8.895.913-.885 2.789-7.403 10.133-12.499 14.083l-2.5 1.938-.119-18.921-.118-18.922h-15.899zm52.727.013v32.286l5.963-.127 5.963-.126.892-2.272c.49-1.249.953-2.333 1.029-2.408.075-.076 1.446.853 3.045 2.064 6.938 5.251 17.94 5.135 24.077-.253 8.602-7.552 9.31-27.484 1.286-36.189-5.867-6.364-19.15-7.141-24.563-1.437-2.197 2.316-2.237 2.113-2.237-11.324v-12.5H205zM30.455 26.818v5.909h15.354l.325-5.42c.418-6.944 1.098-6.398-7.979-6.398h-7.7zm34.689 12.476c-8.741 1.98-13.917 7.946-12.668 14.602l.292 1.559 3.048-.003c1.676-.002 4.735-.134 6.798-.295l3.75-.292v-1.422c0-2.981 2.628-4.807 6.917-4.806 4.641.001 7.327 2.591 7.07 6.818l-.124 2.045-5.227.361c-17.752 1.226-25.024 5.941-24.464 15.859.635 11.238 18.959 14.503 29.976 5.342 2.201-1.83 2.67-1.858 2.67-.157 0 4.112 7.216 6.358 15.037 4.681l2.355-.505-.287-2.744c-.158-1.508-.287-3.73-.287-4.935V73.21l-1.608.06c-2.674.1-2.689.036-2.937-12.496l-.228-11.456-1.35-2.438c-3.795-6.851-16.811-10.287-28.733-7.586zm52.583.062c-22.407 5.911-22.449 39.334-.055 44.081 16.385 3.473 29.21-2.619 29.961-14.232l.214-3.296h-16.029v1.614c0 5.224-6.739 7.962-10.927 4.438-4.954-4.169-4.826-18.488.194-21.549 4.014-2.448 10.629.053 10.79 4.08.117 2.92-1.156 2.625 10.458 2.422l5.514-.096-.214-3.295c-.653-10.091-7.715-14.93-21.683-14.857-3.453.018-6.714.292-8.223.69zm153.537-.014c-10.924 2.649-16.807 11.352-16.115 23.84.768 13.844 8.998 20.882 24.437 20.902 16.672.021 25.371-8.82 24.367-24.765-.981-15.585-15.132-24.233-32.689-19.977zm87.827.658c0 .73.303.909 1.537.909h1.537l.323 4.318c.311 4.149.366 4.318 1.401 4.318 1.046 0 1.081-.121 1.208-4.204l.13-4.205 1.478-.142c1.109-.107 1.477-.362 1.477-1.023 0-.812-.353-.88-4.546-.88-4.242 0-4.545.061-4.545.909zM370 44.318v5.227h1.136c1.119 0 1.137-.06 1.163-3.75l.027-3.75 1.223 2.5c1.63 3.33 2.613 3.346 4.272.073l1.23-2.428.134 3.564c.129 3.463.165 3.564 1.27 3.564h1.136l.128-5.113.129-5.114h-1.755c-1.665 0-1.812.119-2.834 2.302-1.444 3.083-1.537 3.089-2.999.202-1.15-2.272-1.407-2.504-2.764-2.504H370zM30.363 63.75c-.166 29.644.255 28.04-7.224 27.505-3.626-.259-3.216-.833-4.077 5.702-.616 4.679-.807 4.317 2.581 4.872 9.285 1.521 17.485-.323 20.807-4.678 3.35-4.392 3.217-3.136 3.363-31.81l.131-25.796H30.499zm271.91-23.512c0 .38 3.375 5.183 7.5 10.671 4.125 5.489 7.5 10.117 7.5 10.287 0 .169-3.478 4.949-7.728 10.622-4.25 5.674-7.727 10.551-7.727 10.84 0 .377 2.355.524 8.381.524h8.38l2.601-3.977c1.431-2.188 3.41-5.47 4.398-7.294 2.127-3.927 2.296-3.919 4.649.228 1 1.763 2.943 4.964 4.318 7.115l2.5 3.91 8.523.009c5.164.005 8.523-.164 8.523-.429 0-.24-3.58-5.269-7.956-11.174l-7.956-10.737 5.1-6.666c2.805-3.667 6.282-8.201 7.726-10.076 3.695-4.796 4.013-4.546-5.781-4.546h-8.411l-3.409 5.251c-1.875 2.887-3.825 6.065-4.333 7.061-1.086 2.129-1.435 2.012-2.953-.984-.625-1.234-2.459-4.288-4.075-6.786l-2.938-4.542h-8.416c-7.235 0-8.416.098-8.416.693zm-69.8 10.338c5.422 3.072 5.911 17.538.717 21.236-3.316 2.361-8.128 2.139-11.151-.515l-1.584-1.391v-8.51c0-8.246.031-8.539 1.022-9.443 2.884-2.632 7.715-3.237 10.996-1.377zm51.625-.008c5.339 3.629 5.404 18.024.096 21.549-8.82 5.858-17.343-7.301-11.873-18.331 2.079-4.192 7.974-5.802 11.777-3.218zM80.455 67.27v3.179l-1.851 1.341c-6.808 4.931-15.874 2.331-12.68-3.637 1.018-1.901 7.326-3.843 13.053-4.017l1.478-.045zm112.5 22.911c-5.889 1.863-9.472 6.416-10.709 13.608-1.985 11.536 6.689 19.036 15.604 13.494 1.216-.756 2.275-1.374 2.355-1.374.351 0-1.126 6.431-1.758 7.653-2.317 4.481-10.093 4.554-9.199.087l.275-1.376h-4.027c-3.791 0-4.042.059-4.3 1.022-3.282 12.246 20.988 13.304 25.549 1.114.78-2.085 6.665-33.439 6.334-33.745-.069-.063-1.447-.187-3.063-.275l-2.938-.162-1.061 1.91-1.061 1.91-1.767-1.767c-2.617-2.617-6.244-3.361-10.234-2.099zm30.481.284c-9.846 3.844-13.726 22.102-6.022 28.337 3.014 2.439 8.182 2.265 12.156-.41 2.801-1.885 2.475-1.856 3.133-.269.69 1.667 2.177 2.332 5.216 2.332 4.354 0 5.206-.343 5.51-2.214.148-.908.365-2.172.482-2.811.199-1.086.113-1.149-1.35-.978-2.302.269-2.305-.213-.082-12.623 2.276-12.705 2.352-11.831-1.029-11.822-3.007.008-3.338.172-4.353 2.152-.93 1.815-.879 1.816-2.742-.047-2.555-2.555-6.911-3.212-10.919-1.647zm27.621-.593c-1.869.234-2.239.761-2.564 3.651l-.268 2.386h1.583c2.287 0 2.291.234.235 11.797-2.45 13.776-2.72 12.355 2.311 12.197l4.173-.13 1.537-8.61c2.2-12.322 3.955-15.489 8.404-15.167 3.424.248 3.518 1.035 1.511 12.613-.934 5.39-1.796 10.158-1.915 10.596-.195.717.212.795 4.133.795 2.391 0 4.349-.153 4.349-.341 0-.544 2.615-15.2 2.98-16.704 1.049-4.326 3.511-7.046 6.378-7.046 3.683 0 3.973 1.445 2.234 11.16-2.028 11.337-1.347 13.386 4.452 13.386 5.159 0 5.69-.236 6.019-2.667.157-1.158.381-2.453.497-2.877.179-.651-.036-.73-1.393-.51-2.311.375-2.397-.305-1.008-7.99 1.489-8.246 1.514-10.227.163-12.782-3.053-5.773-13.925-4.863-16.362 1.371-.308.786-.87.225-2.216-2.207-2.447-4.419-10.038-4.292-14.358.241l-2.387 2.503v-1.435c0-3.644-2.644-4.962-8.488-4.23zm59.953.156c-13.507 2.662-17.781 25.431-5.581 29.736 8.362 2.95 18.518-1.19 19.81-8.075l.317-1.689h-4.142c-3.799 0-4.141.073-4.141.884 0 3.245-6.684 5.106-9.091 2.532-.977-1.046-1.137-1.641-1.137-4.248v-3.032l9.608-.122 9.607-.123.506-2.01c2.513-9.979-4.432-16.084-15.756-13.853zm29.899-.199c-6.459 1.252-10.416 4.986-10.444 9.853-.026 4.408 2.478 6.402 11.212 8.928 4.566 1.32 5.561 2.482 3.891 4.544-2.612 3.225-10.732 1.513-9.832-2.072.27-1.077.252-1.082-3.633-1.082-4.398 0-4.828.401-4.173 3.894 1.595 8.501 21.974 9.159 25.923.836 2.847-5.999.13-10.074-8.171-12.254-6.622-1.738-8.62-3.853-5.545-5.868 3.464-2.269 8.499-1.038 8.499 2.079v1.35l3.75-.132 3.75-.132.134-2.289c.325-5.544-7.117-9.252-15.361-7.655zm-22.362 6.836c.77.86 1.01 1.606.909 2.82l-.138 1.651-5.568.128c-5.105.117-5.568.06-5.568-.69 0-.652 2.015-4.19 2.403-4.217.053-.004.915-.308 1.915-.677 2.374-.875 4.724-.492 6.047.985zm-117.852-.552c2.591 1.082 2.798 2.168 1.63 8.553-1.115 6.097-1.486 6.757-4.432 7.882-4.055 1.548-6.984-.853-6.984-5.725 0-7.744 4.666-12.85 9.786-10.71zm32.052.261c1.763.944 1.837 1.868.67 8.4-1.54 8.62-1.901 9.206-5.949 9.663-4.321.487-6.135-5.031-4.009-12.192 1.439-4.844 5.917-7.675 9.288-5.871z" fill="#8E8A9C" fill-rule="evenodd"/></g></svg>