<svg height="85pt" viewBox="0 0 400 85" width="400pt" xmlns="http://www.w3.org/2000/svg"><clipPath id="a"><path d="M0 0h400v85H0z"/></clipPath><clipPath id="b"><path d="M0 0h400v85H0z"/></clipPath><g clip-path="url(#a)"><g clip-path="url(#b)"><path d="M37.516.309c-1.333.536-1.487 1.407-.697 3.913 2.206 7-.315 8.869-4.216 3.123-2.315-3.41-3.159-4.017-5.204-3.743-4.013.539-4.149 1.64-.714 5.842 3.246 3.974 3.55 6.226.97 7.207-1.575.6-2.73-.104-5.154-3.142-3.231-4.05-5.177-5.027-6.793-3.411-1.067 1.067-.713 2.031 1.768 4.826 2.134 2.403 2.394 2.881 2.394 4.407 0 2.153-.292 2.169-4.539.235-4.211-1.918-5.901-1.962-7.479-.197-1.304 1.459-1.105 2.588.546 3.089 2.751.834 3.216 2.554 1.679 6.205-.826 1.961-.992 2.934-.897 5.22.156 3.793-.763 4.677-3.881 3.731-4.968-1.507-6.202-.037-4.7 5.6.587 2.2.612 2.882.183 4.958-.452 2.192-.424 2.57.318 4.248.447 1.013.815 2.587.815 3.498 0 3.912 1.945 4.347 5.514 1.234 2.837-2.474 2.875-2.488 3.848-1.413 1.308 1.446.552 2.587-2.755 4.156-5.219 2.478-4.936 3.649 2.311 9.551 3.421 2.787 4.518 6.323 3.255 10.486-.805 2.656-.763 2.956.415 2.956 5.439 0 8.419-8.335 5.81-16.253-1.75-5.314-1.776-5.631-.827-10.264 1.155-5.64.509-8.041-2.029-7.535-2.857.572-3.802-2.515-1.178-3.853 1.257-.642 1.994-1.464 1.994-2.223 0-.09-.898-1.154-1.994-2.366-2.356-2.6-2.454-3.412-.639-5.227 3.143-3.143 11.243-.124 9.807 3.655-.784 2.06-.493 3.167 1.106 4.213 1.367.895 1.485 1.115 1.368 2.561-.318 3.922-.329 3.866.927 4.566 1.09.607 1.207.877 1.319 3.017.163 3.132 1.665 4.991 1.679 2.078.015-3.05.603-2.902 3.516.887 1.902 2.477 2.552 1.378 1.296-2.194-.85-2.418-.768-2.535.967-1.386 2.333 1.545 3.578.694 2.379-1.626-.483-.934-.619-1.922-.484-3.528.264-3.136-.155-3.757-3.828-5.666-6.764-3.519-6.812-6.737-.1-6.737 5.533 0 8.661-4.102 6.59-8.647-1.982-4.351 2.532-7.944 8.936-7.112 8.338 1.082 11.313 8.977 3.382 8.977-1.493 0-3.655 1.998-4.888 4.518-1.094 2.238-1.038 3.11.384 5.859.986 1.905.598 5.778-1.173 11.716-.845 2.831-1.316 5.121-1.174 5.691.319 1.266-.408 2.061-2.183 2.389-.801.147-1.906.607-2.454 1.02s-1.805 1.337-2.792 2.054c-2.468 1.795-2.654 2.844-.438 2.469.899-.152 1.634-.192 1.634-.091 0 .102-.269.948-.598 1.881-1.336 3.786-.694 5.232 1.315 2.961 1.676-1.892 2.442-1.672 3.461 1 1.16 3.039 1.807 3.082 1.807.122 0-1.76.257-2.85.997-4.245.549-1.032.998-2.208.998-2.616 0-1.506 5.746-4.191 8.878-4.148 3.219.045 3.131.42 1.342-5.761-1.402-4.846-2.182-9.658-1.566-9.658.327 0 2.299 2.857 4.48 6.489 1.955 3.254 2.916 2.78 3.807-1.878 1.008-5.267 3.292-7.631 6.385-6.611 6.174 2.038 5.467 15.62-.982 18.866-2.929 1.475-3.283 2.015-2.97 4.525.415 3.318-1.031 5.222-6.678 8.794-1.789 1.131-3.574 2.642-4.291 3.632-1.171 1.616-1.324 1.695-3.286 1.695-1.587 0-2.474.266-3.886 1.162-1.008.641-2.864 1.665-4.125 2.278-2.489 1.21-2.609 1.376-1.668 2.318 1.771 1.77 8.698.533 11.463-2.046 1.33-1.24 2.123-1.707 2.594-1.524 2.179.843 2.62.687 7.859-2.793 7.337-4.87 7.913-5.47 7.629-7.945-.283-2.465.158-3.022 2.395-3.022 3.231 0 6.655-4.804 7.93-11.126.371-1.84 1.018-4.144 1.436-5.119 1.003-2.339.972-2.639-.436-4.241-1.344-1.531-1.469-2.584-.599-5.049 1.276-3.617.774-4.485-3.927-6.784-4.909-2.4-4.155-5.173 1.256-4.619l2.586.264-.224-2.166c-.464-4.502-2.699-6.449-5.965-5.197-4.865 1.864-6.833-.773-3.103-4.157 2.366-2.146 2.524-3.167.798-5.134-.899-1.023-1.197-1.756-1.197-2.944V9.471H73.12c-1.642 0-2.511-.223-3.38-.865l-1.171-.866-2.507 2.661c-3.894 4.131-4.895 3.707-4.895-2.069 0-5.729-.704-6.348-8.77-7.7-6.461-1.083-6.243-1.198-5.948 3.139.458 6.779-2.351 8.166-3.869 1.909-1.131-4.662-2.696-6.321-5.064-5.371zm247.458 11.304c-.116.299-.155 2.993-.087 5.985.067 2.992.082 5.44.035 5.44s-.918-.528-1.934-1.173c-4.392-2.785-12.616-2.727-17.482.125-9.685 5.676-7.932 21.834 2.756 25.391 5.489 1.826 16.519.16 16.544-2.499.002-.164.195-.299.431-.299.246 0 .374.558.299 1.298l-.129 1.296 5.886.11 5.884.11v-36.33h-5.997c-4.703 0-6.042.118-6.206.546zm-130.241 8.088c-6.513.95-9.447 2.616-10.952 6.216-1.156 2.77-1.278 2.706 5.237 2.706h5.856l1.027-1.23c2.432-2.914 11.202-2.169 11.202.951 0 1.567-1.287 1.901-8.831 2.298-7.942.417-10.948.871-13.115 1.981-5.867 3.005-5.693 11.283.299 14.225 4.322 2.122 15.295 1.788 19.838-.603 1.104-.582 2.13-1.115 2.278-1.184.15-.07.329.379.4.996l.128 1.12 6.267.11 6.269.109-.583-1.393c-.446-1.069-.582-3.324-.584-9.686-.002-11.045-.772-13.166-5.513-15.206-3.306-1.422-13.845-2.195-19.223-1.41zm74.614 0c-6.514.95-9.448 2.616-10.951 6.216-1.158 2.771-1.284 2.706 5.29 2.706h5.91l.859-1.161c2.128-2.88 11.261-2.288 11.261.729 0 1.732-1.13 2.046-8.83 2.451-9.938.521-12.63 1.115-15.048 3.315-3.384 3.077-2.865 9.562.973 12.192 4.234 2.901 16.258 2.828 21.553-.131 2.252-1.259 2.07-1.264 2.224.061l.125 1.098 6.305.11 6.303.11-.518-.908c-.369-.645-.576-3.683-.718-10.484-.242-11.609-.508-12.401-4.891-14.529-3.626-1.761-13.745-2.666-19.847-1.775zm86.117.128c-9.443 1.722-12.9 5.522-12.9 14.181 0 10.646 5.716 14.478 20.998 14.077 13.246-.347 18.111-4.13 18.1-14.077-.007-7.643-2.937-11.631-9.97-13.565-2.755-.757-13.263-1.157-16.228-.616zm-198.836.651c-1.097.342-2.657 1.148-3.467 1.79-1.856 1.47-1.919 1.461-1.919-.23v-1.397H99.67v36.31h11.97v-5.985c0-3.292.102-5.985.227-5.985.124 0 .834.463 1.578 1.031 3.922 2.991 13.37 2.981 18.124-.021 9.124-5.759 7.704-21.102-2.313-25.004-2.974-1.158-9.678-1.428-12.628-.509zm87.435.339c-2.323.963-3.627 1.897-5.326 3.815l-.883.997-.014-2.494-.015-2.494h-11.97v26.734h12.37v-6.025c0-6.965.357-8.172 2.924-9.871 1.713-1.135 7.777-1.539 10.953-.728l1.308.333-.111-5.521-.111-5.521-3.393-.097c-2.828-.082-3.779.063-5.732.872zm145.229 5.111c2.576 2.908 5.103 5.748 5.616 6.312l.935 1.026-5.991 6.816c-3.295 3.747-5.991 6.922-5.991 7.054 0 .131 3.403.239 7.562.239h7.561l2.461-3.492c1.354-1.92 2.584-3.627 2.736-3.793.151-.166 1.432 1.402 2.846 3.484l2.57 3.789 7.681.006c4.224.002 7.681-.071 7.681-.165s-2.622-3.102-5.827-6.683c-3.205-3.583-5.917-6.737-6.027-7.01s1.929-2.846 4.53-5.72c2.602-2.873 5.06-5.657 5.462-6.187l.731-.963h-14.805l-2.062 3.093c-1.134 1.7-2.201 3.247-2.373 3.438-.171.19-1.34-1.202-2.598-3.093l-2.288-3.438H344.61zM26.879 28.275c1.373 2.656.341 4.859-1.765 3.769-1.86-.962-2.057-2.616-.588-4.943.676-1.07 1.371-.723 2.353 1.174zm298.999-.15c4.217 2.15 4.333 9.481.182 11.475-5.625 2.702-11.157-.407-10.833-6.084.238-4.156 2.423-6.088 6.889-6.088 1.492 0 2.91.263 3.762.697zM71.111 29.95c3.968 5.761 3.485 9.048-1.242 8.457-4.103-.513-4.74-2.678-2.248-7.653 1.752-3.496 1.652-3.472 3.49-.804zm51.56-.874c3.389 2.046 3.274 7.855-.198 10.014-3.077 1.914-8.461.937-9.903-1.795-3.272-6.205 3.845-11.996 10.101-8.219zm157.714-.821c7.42 1.591 5.734 11.672-1.96 11.723-9.052.06-9.339-10.82-.32-12.112.155-.023 1.181.153 2.28.389zM166.508 38.839c-1.844 3.433-10.864 4.119-12.187.925-1.081-2.611.115-3.238 7.594-3.981 2.524-.25 4.679-.545 4.788-.654.548-.543.379 2.637-.195 3.71zm75.341-1.701c-.737 4.545-11.032 6.8-12.847 2.815-1.196-2.624.222-3.445 7.128-4.124 2.743-.269 5.066-.568 5.16-.663.468-.465.777.625.559 1.972zM55.166 45.21c.145 1.521.546 4.03.891 5.575.88 3.937-.127 6.119-2.289 4.961-1.382-.739-1.562-1.645-1.152-5.813.921-9.378 1.93-11.245 2.55-4.723zm-20.495.327c1.14 1.869 1.022 3.436-.256 3.436-1.816 0-2.975-1.636-2.975-4.2v-2.239l1.237.881c.68.483 1.578 1.439 1.994 2.122zm-24.16 1.224c1.071 1.07 1.234 2.186.516 3.534-1.109 2.082-3.347 2.484-4.941.89-1.979-1.979-.577-5.405 2.213-5.405.776 0 1.595.363 2.212.981zm382.796 12.954c-2.393 2.392-1.102 6.231 2.246 6.681 3.126.419 5.463-2.963 4-5.792-1.251-2.42-4.283-2.851-6.246-.889zm4.694.499c1.265 1.188 1.24 3.241-.057 4.538-1.468 1.468-3.688 1.041-4.563-.879-1.441-3.165 2.132-5.995 4.62-3.659zm-129.767.681c-4.231 1.921-4.561 9.405-.52 11.792 3.387 2 9.779.976 11.496-1.841 1.231-2.019 1.076-2.323-1.185-2.323-1.405 0-1.994.16-1.994.538 0 3.593-6.749 2.412-7.375-1.292-.759-4.494 3.771-7.048 6.802-3.834 1.804 1.913 4.828 2.12 4.377.3-.892-3.592-7.108-5.381-11.601-3.34zm126.214-.451c-.074.165-.023 1.197.113 2.294.136 1.098.276 1.591.311 1.098.078-1.113 1.114-1.184 1.459-.101.139.44.511.799.828.799.473 0 .487-.14.083-.788-.389-.622-.389-.892-.004-1.277.685-.685.61-1.794-.142-2.082-.88-.337-2.486-.303-2.648.057zM99.67 66.928v6.383h3.591V60.544H99.67zm20.349 0v6.383h3.167l.112-4.484.114-4.485 3.517 4.485 3.516 4.484h3.939V60.544h-3.564l-.114 4.273-.112 4.275-3.178-4.275-3.178-4.273h-4.219zm29.6-5.287c.12 1.039.249 1.103 2.421 1.217l2.294.12v10.333h3.591V62.938h4.788v-2.394h-13.22zm28.655 5.287v6.383h11.971v-2.394h-8.379v-3.191h7.98v-1.995h-7.98v-2.793h8.379v-2.394h-11.971zm28.33 0v6.383h3.591v-4.788h2.318c2.92 0 3.597.506 3.748 2.794l.118 1.796 1.875.121 1.873.119-.2-1.516c-.469-3.577-.631-4.165-1.196-4.383-.498-.19-.462-.355.217-.987 1.108-1.033 1.411-2.507.814-3.951-.744-1.795-1.422-1.972-7.546-1.972h-5.612zm33.397-5.886c-.114.275-1.377 3.147-2.808 6.385l-2.603 5.884h1.893c1.771 0 1.937-.089 2.559-1.395l.667-1.397h5.587l.585 1.397c.55 1.32 4.636 2.345 4.147 1.04-.073-.195-1.3-3.064-2.725-6.377l-2.594-6.022-2.252-.006c-1.431-.004-2.326.174-2.456.491zm54.782.699v1.197h4.788v10.373h3.592V62.938h4.788v-2.394h-13.168zm28.33 5.187v6.383h3.591V60.544h-3.591zm19.034-5.718c.14.366 1.368 3.193 2.729 6.284l2.473 5.619 1.956.117 1.956.117 2.852-6.422 2.854-6.42-2.017.118-2.017.12-1.643 4.487c-2.004 5.474-1.787 5.48-3.855-.098l-1.699-4.588h-1.923c-1.63 0-1.883.101-1.666.666zm29.844 5.718v6.383h12.17v-2.394h-8.827l.125-1.496.123-1.496 4.09-.114c4.034-.111 4.09-.127 4.09-1.083 0-.957-.056-.971-4.09-1.083l-4.09-.114-.125-1.296-.125-1.297h8.829v-2.394h-12.17zm24.938-5.387c0 .373-.377.599-.998.599-.62 0-.997-.226-.997-.599 0-.372.377-.598.997-.598.621 0 .998.226.998.598zm-180.817 2.75c.172 1.514-.409 1.825-3.423 1.832l-2.494.006v-3.227l2.892.118c2.862.116 2.895.13 3.025 1.271zm27.306 1.393c.942 2.653.936 2.666-1.13 2.501-1.163-.093-1.756-.309-1.64-.601 1.841-4.614 1.813-4.594 2.77-1.9z" fill="#8E8A9C" fill-rule="evenodd"/></g></g></svg>