<svg height="117.5pt" viewBox="0 0 400 117.5" width="400pt" xmlns="http://www.w3.org/2000/svg"><clipPath id="a"><path d="M0 0h400v117.5H0z"/></clipPath><clipPath id="b"><path d="M0 0h400v117.5H0z"/></clipPath><g clip-path="url(#a)"><g clip-path="url(#b)" fill="#8E8A9C"><path d="M0 117.537V0h82.018v117.537zm70.15-11.84V11.84H11.81v93.857zm66.365-52.977h-5.074c-6.651-9.404-13.274-18.749-19.867-29.327V52.72h-5.733V11.811h5.074c6.651 9.345 13.273 18.634 19.809 29.155V11.811h5.734V52.72zm13.302-16.169c1.634-5.361 3.268-10.349 4.73-16.655 1.634 6.306 3.096 11.294 4.616 16.655zm2.694-24.711l-14.162 40.88h6.078l3.555-11.152h12.327l3.21 11.152h7.827l-12.929-40.909h-5.733zm25.486 40.88V17.315h-10.751V11.84h28.439v5.475h-10.75V52.72h-7.024zm20.068 0V11.811h6.966V52.72zm28.552-5.218c-7.31 0-9.89-8.056-9.89-15.882s2.867-14.735 9.89-14.735c7.024 0 9.862 7.196 9.862 14.735 0 7.54-2.551 15.882-9.862 15.882zm0 5.734c10.693 0 17.344-9.518 17.344-21.73 0-11.467-7.368-20.584-17.344-20.584s-17.344 9.117-17.344 20.584c0 12.384 6.652 21.93 17.344 21.93zm52.204-.516h-5.074c-6.65-9.404-13.273-18.749-19.866-29.327V52.72h-5.734V11.811h5.074c6.651 9.345 13.274 18.634 19.809 29.155V11.811h5.734V52.72zm13.388-16.169c1.634-5.361 3.268-10.349 4.73-16.655 1.634 6.306 3.095 11.294 4.616 16.655h-9.461zm2.695-24.711l-14.133 40.908h6.077l3.555-11.152h12.327l3.21 11.152h7.827L300.723 11.84h-5.734zm20.898-.029h6.967v35.404h13.846v5.505h-20.813zM132.186 86.949v16.885a32.207 32.207 0 01-11.639 2.523c-12.04 0-19.638-9.346-19.638-21.386 0-11.152 7.598-20.927 19.867-20.927a17.49 17.49 0 019.919 3.153l-2.264 4.845a15.204 15.204 0 00-7.482-2.15c-7.483 0-12.557 5.906-12.557 15.194s5.733 15.423 11.869 15.423a10.318 10.318 0 004.901-1.003V86.949zm25.085-16.714h-11.697v11.21h11.467v5.504h-11.467v13.216h13.789v5.504h-20.812V64.703h18.692v5.504zm21.615 30.274c-7.31 0-9.862-8.056-9.862-15.882s2.867-14.735 9.862-14.735 9.891 7.195 9.891 14.735c-.001 7.539-2.581 15.882-9.891 15.882zm0 5.733c10.693 0 17.344-9.518 17.344-21.73 0-11.466-7.368-20.583-17.344-20.583s-17.343 9.117-17.343 20.583c0 12.327 6.65 21.845 17.343 21.845zm51.028-19.293v16.885a32.207 32.207 0 01-11.639 2.523c-12.04 0-19.638-9.346-19.638-21.386 0-11.152 7.598-20.927 19.868-20.927a17.49 17.49 0 019.918 3.153l-2.264 4.845a15.204 15.204 0 00-7.483-2.15c-7.482 0-12.556 5.906-12.556 15.194s5.733 15.423 11.868 15.423a10.328 10.328 0 004.903-1.003V86.949zm13.445-16.714h3.096a5.934 5.934 0 016.48 6.594 7.196 7.196 0 01-6.652 8.113l-2.866.172V70.207zm17.774 35.406l-8.113-16.943a13.759 13.759 0 007.081-12.155c0-7.941-4.845-11.811-12.671-11.811h-10.922v40.909h7.023V90.217h3.154l6.593 15.424h7.999z"/><path d="M272.687 89.472c1.634-5.361 3.268-10.349 4.73-16.656 1.634 6.307 3.096 11.266 4.615 16.656h-9.46zm2.694-24.769l-14.133 40.908h6.107l3.554-11.152h12.327l3.211 11.152h7.826l-13.044-40.908h-5.733zm32.108 0h-10.922v40.908h7.023V90.217h3.154c7.378.049 13.399-5.891 13.448-13.269.002-.136 0-.271-.003-.406-.115-7.941-4.96-11.839-12.7-11.839zm-1.004 20.21l-2.867.172V70.207h3.154a5.935 5.935 0 016.422 6.593 7.224 7.224 0 01-6.794 8.171zm46.098 20.728h-7.024V85.946h-14.563v19.695h-6.966V64.703h6.966v15.709h14.563V64.817h7.024v40.794zm6.709 0V64.703h6.966v40.908h-6.966zm38.5-33.484a14.734 14.734 0 00-7.196-2.265c-7.138 0-12.327 5.905-12.327 15.193s5.734 15.424 12.5 15.424a13.256 13.256 0 007.023-2.035l1.921 5.074a17.828 17.828 0 01-9.231 2.866c-12.04 0-19.637-9.345-19.637-21.386 0-11.151 7.539-20.927 19.752-20.927A17.2 17.2 0 01400 67.255z"/></g></g></svg>