<svg height="155.805" viewBox="0 0 400 116.854" width="400pt" xmlns="http://www.w3.org/2000/svg"><clipPath id="a"><path d="M0 0h400v116.854H0z"/></clipPath><g clip-path="url(#a)"><path d="M.16 45.88l.215 45.88 1.71 3.256c14.899 28.35 62.13 27.486 75.63-1.383 17.147-36.664-24.048-74.261-57.09-52.104l-4.895 3.282-.018-15.102c-.02-16.987-.465-19.953-3.462-23.082C9.335 3.585 3.571 0 1.593 0H-.055zm285.414 28.465l.194 42.134 2.613.248c3.685.35 7.776-1.187 10.411-3.911l2.254-2.329.226-23.221c.25-25.664.358-26.27 5.588-31.234 7.172-6.807 19.365-5.339 25.178 3.031l2.419 3.484.396 20.974c.218 11.535.668 21.543 1 22.239 1.951 4.098 9.035 4.898 12.519 1.414l2.19-2.19V86.157c0-21.507.402-24.027 4.595-28.791 7.718-8.768 21.623-7.112 27.02 3.218l2.093 4.007V87.25c0 22.122.038 22.709 1.626 24.728 2.131 2.708 6.933 4.839 10.954 4.859l3.217.017-.221-28.67-.221-28.669-2.573-5.226c-9.393-19.074-35.504-24.688-50.506-10.859l-3.375 3.111-3.991-3.252c-10.211-8.316-24.857-9.799-36.703-3.716l-2.767 1.421-2.102-2.246c-2.911-3.109-8.415-6.538-10.495-6.538h-1.732zM124.576 36.267c-36.918 7.28-44.194 58.981-10.683 75.913 17.919 9.054 46.705 3.444 48.433-9.439.686-5.114.26-5.451-4.882-3.851-16.39 5.102-37.482 1.605-44.07-7.305-1.578-2.135-4.011-6.549-4.011-7.278 0-.227 13.509-.412 30.02-.412h30.021l2.189-2.189c1.997-1.997 2.19-2.645 2.19-7.355 0-24.455-24.026-43.049-49.207-38.084zm97.719-.333c-32.618 5.915-45.38 44.607-22.523 68.283 13.425 13.906 35.632 16.548 52.04 6.19l2.796-1.765 2.383 3.318c2.623 3.652 5.202 4.894 10.162 4.894h3.259l-.006-21.536c-.006-24.445-.534-29.1-4.155-36.641-7.769-16.184-26.549-25.9-43.956-22.743zM51.177 53.197C75.298 65.244 67.61 100 40.824 100c-28.207 0-34.582-37.822-8.084-47.96 4.408-1.686 13.941-1.088 18.437 1.157zm90.771-.169c5.856 2.239 12.8 8.818 14.198 13.451l.509 1.686h-23.646c-13.005 0-23.646-.182-23.646-.405 0-10.272 20.277-19.44 32.585-14.732zm91.91-1.25c29.282 6.206 25.226 48.961-4.645 48.961-29.56 0-33.963-43.29-4.985-49.023 4.453-.881 5.207-.876 9.63.062z" fill="#8E8A9C" fill-rule="evenodd"/></g></svg>